<mxfile host="app.diagrams.net" agent="Mozilla/5.0 (Windows NT 10.0; Win64; x64) AppleWebKit/537.36 (KHTML, like Gecko) Chrome/136.0.0.0 Safari/537.36" scale="1" border="0" version="27.0.9">
  <diagram name="Page-1" id="lo4eZgfJaH8Q86cD6Dl4">
    <mxGraphModel dx="1042" dy="623" grid="1" gridSize="10" guides="1" tooltips="1" connect="1" arrows="1" fold="1" page="1" pageScale="1" pageWidth="1920" pageHeight="1200" background="none" math="0" shadow="1">
      <root>
        <object label="" id="0">
          <mxCell />
        </object>
        <mxCell id="1" parent="0" />
        <mxCell id="7gnHyq3HujZfWvgFVugJ-2" value="" style="rounded=1;whiteSpace=wrap;html=1;dashed=1;" parent="1" vertex="1">
          <mxGeometry x="90" y="420" width="160" height="440" as="geometry" />
        </mxCell>
        <mxCell id="7gnHyq3HujZfWvgFVugJ-3" value="&lt;b&gt;&lt;font style=&quot;font-size: 16px;&quot;&gt;Sources&lt;/font&gt;&lt;/b&gt;" style="rounded=1;whiteSpace=wrap;html=1;strokeColor=#d6b656;fillColor=#fff2cc;dashed=1;" parent="1" vertex="1">
          <mxGeometry x="110" y="400" width="120" height="40" as="geometry" />
        </mxCell>
        <mxCell id="7gnHyq3HujZfWvgFVugJ-44" style="edgeStyle=orthogonalEdgeStyle;rounded=0;orthogonalLoop=1;jettySize=auto;html=1;entryX=0;entryY=0.5;entryDx=0;entryDy=0;" parent="1" source="7gnHyq3HujZfWvgFVugJ-5" target="7gnHyq3HujZfWvgFVugJ-23" edge="1">
          <mxGeometry relative="1" as="geometry" />
        </mxCell>
        <mxCell id="7gnHyq3HujZfWvgFVugJ-45" style="edgeStyle=orthogonalEdgeStyle;rounded=0;orthogonalLoop=1;jettySize=auto;html=1;" parent="1" edge="1">
          <mxGeometry relative="1" as="geometry">
            <mxPoint x="364" y="535" as="targetPoint" />
            <mxPoint x="250.97000000000003" y="535" as="sourcePoint" />
          </mxGeometry>
        </mxCell>
        <mxCell id="7gnHyq3HujZfWvgFVugJ-46" style="edgeStyle=orthogonalEdgeStyle;rounded=0;orthogonalLoop=1;jettySize=auto;html=1;entryX=0;entryY=0.5;entryDx=0;entryDy=0;" parent="1" source="7gnHyq3HujZfWvgFVugJ-5" target="7gnHyq3HujZfWvgFVugJ-25" edge="1">
          <mxGeometry relative="1" as="geometry" />
        </mxCell>
        <mxCell id="7gnHyq3HujZfWvgFVugJ-5" value="" style="image;aspect=fixed;html=1;points=[];align=center;fontSize=12;image=img/lib/azure2/general/Folder_Blank.svg;" parent="1" vertex="1">
          <mxGeometry x="123.03999999999999" y="505" width="73.93" height="60" as="geometry" />
        </mxCell>
        <mxCell id="7gnHyq3HujZfWvgFVugJ-15" value="" style="image;aspect=fixed;html=1;points=[];align=center;fontSize=12;image=img/lib/azure2/general/File.svg;" parent="1" vertex="1">
          <mxGeometry x="180" y="540" width="32.46" height="40" as="geometry" />
        </mxCell>
        <mxCell id="7gnHyq3HujZfWvgFVugJ-37" style="edgeStyle=orthogonalEdgeStyle;rounded=0;orthogonalLoop=1;jettySize=auto;html=1;entryX=0;entryY=0.5;entryDx=0;entryDy=0;" parent="1" source="7gnHyq3HujZfWvgFVugJ-18" target="7gnHyq3HujZfWvgFVugJ-26" edge="1">
          <mxGeometry relative="1" as="geometry" />
        </mxCell>
        <mxCell id="7gnHyq3HujZfWvgFVugJ-38" style="edgeStyle=orthogonalEdgeStyle;rounded=0;orthogonalLoop=1;jettySize=auto;html=1;" parent="1" source="7gnHyq3HujZfWvgFVugJ-18" target="7gnHyq3HujZfWvgFVugJ-28" edge="1">
          <mxGeometry relative="1" as="geometry" />
        </mxCell>
        <mxCell id="7gnHyq3HujZfWvgFVugJ-40" style="edgeStyle=orthogonalEdgeStyle;rounded=0;orthogonalLoop=1;jettySize=auto;html=1;" parent="1" edge="1">
          <mxGeometry relative="1" as="geometry">
            <mxPoint x="364" y="750" as="targetPoint" />
            <mxPoint x="220.97000000000003" y="750" as="sourcePoint" />
          </mxGeometry>
        </mxCell>
        <mxCell id="7gnHyq3HujZfWvgFVugJ-18" value="" style="image;aspect=fixed;html=1;points=[];align=center;fontSize=12;image=img/lib/azure2/general/Folder_Blank.svg;" parent="1" vertex="1">
          <mxGeometry x="123.03999999999999" y="720" width="73.93" height="60" as="geometry" />
        </mxCell>
        <mxCell id="7gnHyq3HujZfWvgFVugJ-19" value="" style="image;aspect=fixed;html=1;points=[];align=center;fontSize=12;image=img/lib/azure2/general/File.svg;" parent="1" vertex="1">
          <mxGeometry x="180" y="760" width="32.46" height="40" as="geometry" />
        </mxCell>
        <mxCell id="7gnHyq3HujZfWvgFVugJ-21" value="&lt;font style=&quot;font-size: 16px;&quot;&gt;&lt;b&gt;Bronze Layer&lt;/b&gt;&lt;/font&gt;" style="rounded=1;whiteSpace=wrap;html=1;fillColor=#fad7ac;strokeColor=#b46504;" parent="1" vertex="1">
          <mxGeometry x="350" y="370" width="180" height="40" as="geometry" />
        </mxCell>
        <mxCell id="7gnHyq3HujZfWvgFVugJ-22" value="" style="rounded=1;whiteSpace=wrap;html=1;fillColor=none;strokeColor=#b46504;fillStyle=auto;gradientColor=none;" parent="1" vertex="1">
          <mxGeometry x="350" y="430" width="180" height="430" as="geometry" />
        </mxCell>
        <mxCell id="I61YopK0WSlyQ3vse2ND-12" style="edgeStyle=orthogonalEdgeStyle;rounded=0;orthogonalLoop=1;jettySize=auto;html=1;" parent="1" source="7gnHyq3HujZfWvgFVugJ-23" target="I61YopK0WSlyQ3vse2ND-3" edge="1">
          <mxGeometry relative="1" as="geometry" />
        </mxCell>
        <mxCell id="7gnHyq3HujZfWvgFVugJ-23" value="&lt;font style=&quot;font-size: 14px;&quot;&gt;crm_cust_info&lt;/font&gt;" style="rounded=1;whiteSpace=wrap;html=1;fillColor=#fad7ac;strokeColor=#b46504;" parent="1" vertex="1">
          <mxGeometry x="365" y="475" width="150" height="30" as="geometry" />
        </mxCell>
        <mxCell id="I61YopK0WSlyQ3vse2ND-13" style="edgeStyle=orthogonalEdgeStyle;rounded=0;orthogonalLoop=1;jettySize=auto;html=1;" parent="1" source="7gnHyq3HujZfWvgFVugJ-24" target="I61YopK0WSlyQ3vse2ND-4" edge="1">
          <mxGeometry relative="1" as="geometry" />
        </mxCell>
        <mxCell id="7gnHyq3HujZfWvgFVugJ-24" value="&lt;font style=&quot;font-size: 14px;&quot;&gt;crm_prd_info&lt;/font&gt;" style="rounded=1;whiteSpace=wrap;html=1;fillColor=#fad7ac;strokeColor=#b46504;" parent="1" vertex="1">
          <mxGeometry x="365" y="520" width="150" height="30" as="geometry" />
        </mxCell>
        <mxCell id="I61YopK0WSlyQ3vse2ND-14" style="edgeStyle=orthogonalEdgeStyle;rounded=0;orthogonalLoop=1;jettySize=auto;html=1;entryX=0;entryY=0.5;entryDx=0;entryDy=0;" parent="1" source="7gnHyq3HujZfWvgFVugJ-25" target="I61YopK0WSlyQ3vse2ND-5" edge="1">
          <mxGeometry relative="1" as="geometry" />
        </mxCell>
        <mxCell id="7gnHyq3HujZfWvgFVugJ-25" value="&lt;font style=&quot;font-size: 14px;&quot;&gt;crm_sales_details&lt;/font&gt;" style="rounded=1;whiteSpace=wrap;html=1;fillColor=#fad7ac;strokeColor=#b46504;" parent="1" vertex="1">
          <mxGeometry x="365" y="565" width="150" height="30" as="geometry" />
        </mxCell>
        <mxCell id="I61YopK0WSlyQ3vse2ND-15" style="edgeStyle=orthogonalEdgeStyle;rounded=0;orthogonalLoop=1;jettySize=auto;html=1;entryX=0;entryY=0.5;entryDx=0;entryDy=0;" parent="1" source="7gnHyq3HujZfWvgFVugJ-26" target="I61YopK0WSlyQ3vse2ND-6" edge="1">
          <mxGeometry relative="1" as="geometry" />
        </mxCell>
        <mxCell id="7gnHyq3HujZfWvgFVugJ-26" value="&lt;font style=&quot;font-size: 14px;&quot;&gt;erp_cust_az12&lt;/font&gt;" style="rounded=1;whiteSpace=wrap;html=1;fillColor=#fad7ac;strokeColor=#b46504;" parent="1" vertex="1">
          <mxGeometry x="365" y="690" width="150" height="30" as="geometry" />
        </mxCell>
        <mxCell id="I61YopK0WSlyQ3vse2ND-16" style="edgeStyle=orthogonalEdgeStyle;rounded=0;orthogonalLoop=1;jettySize=auto;html=1;" parent="1" source="7gnHyq3HujZfWvgFVugJ-27" target="I61YopK0WSlyQ3vse2ND-7" edge="1">
          <mxGeometry relative="1" as="geometry" />
        </mxCell>
        <mxCell id="7gnHyq3HujZfWvgFVugJ-27" value="&lt;font style=&quot;font-size: 14px;&quot;&gt;erp_loc_a101&lt;/font&gt;" style="rounded=1;whiteSpace=wrap;html=1;fillColor=#fad7ac;strokeColor=#b46504;" parent="1" vertex="1">
          <mxGeometry x="365" y="735" width="150" height="30" as="geometry" />
        </mxCell>
        <mxCell id="I61YopK0WSlyQ3vse2ND-18" style="edgeStyle=orthogonalEdgeStyle;rounded=0;orthogonalLoop=1;jettySize=auto;html=1;" parent="1" source="7gnHyq3HujZfWvgFVugJ-28" target="I61YopK0WSlyQ3vse2ND-8" edge="1">
          <mxGeometry relative="1" as="geometry" />
        </mxCell>
        <mxCell id="7gnHyq3HujZfWvgFVugJ-28" value="&lt;font style=&quot;font-size: 14px;&quot;&gt;erp_px_cat_g1v2&lt;/font&gt;" style="rounded=1;whiteSpace=wrap;html=1;fillColor=#fad7ac;strokeColor=#b46504;" parent="1" vertex="1">
          <mxGeometry x="365" y="780" width="150" height="30" as="geometry" />
        </mxCell>
        <mxCell id="7gnHyq3HujZfWvgFVugJ-47" value="&lt;b&gt;&lt;font style=&quot;font-size: 14px;&quot;&gt;CRM&lt;/font&gt;&lt;/b&gt;" style="rounded=0;whiteSpace=wrap;html=1;strokeColor=none;fillColor=none;" parent="1" vertex="1">
          <mxGeometry x="126.22999999999999" y="580" width="67.54" height="20" as="geometry" />
        </mxCell>
        <mxCell id="7gnHyq3HujZfWvgFVugJ-48" value="&lt;b&gt;&lt;font style=&quot;font-size: 14px;&quot;&gt;ERP&lt;/font&gt;&lt;/b&gt;" style="rounded=0;whiteSpace=wrap;html=1;strokeColor=none;fillColor=none;" parent="1" vertex="1">
          <mxGeometry x="126.22999999999999" y="800" width="67.54" height="20" as="geometry" />
        </mxCell>
        <mxCell id="7gnHyq3HujZfWvgFVugJ-49" value="&lt;b&gt;&lt;font style=&quot;font-size: 29px;&quot;&gt;Data Flow Diagram&lt;/font&gt;&lt;/b&gt;" style="rounded=0;whiteSpace=wrap;html=1;strokeColor=none;fillColor=none;" parent="1" vertex="1">
          <mxGeometry x="20" y="130" width="370" height="60" as="geometry" />
        </mxCell>
        <mxCell id="I61YopK0WSlyQ3vse2ND-1" value="" style="rounded=1;whiteSpace=wrap;html=1;fillColor=none;strokeColor=#666666;fillStyle=auto;fontColor=#333333;" parent="1" vertex="1">
          <mxGeometry x="600" y="430" width="180" height="430" as="geometry" />
        </mxCell>
        <mxCell id="I61YopK0WSlyQ3vse2ND-3" value="&lt;font style=&quot;font-size: 14px;&quot;&gt;crm_cust_info&lt;/font&gt;" style="rounded=1;whiteSpace=wrap;html=1;fillColor=#f5f5f5;strokeColor=#666666;fontColor=#333333;" parent="1" vertex="1">
          <mxGeometry x="615" y="475" width="150" height="30" as="geometry" />
        </mxCell>
        <mxCell id="I61YopK0WSlyQ3vse2ND-4" value="&lt;font style=&quot;font-size: 14px;&quot;&gt;crm_prd_info&lt;/font&gt;" style="rounded=1;whiteSpace=wrap;html=1;fillColor=#f5f5f5;strokeColor=#666666;fontColor=#333333;" parent="1" vertex="1">
          <mxGeometry x="615" y="520" width="150" height="30" as="geometry" />
        </mxCell>
        <mxCell id="I61YopK0WSlyQ3vse2ND-5" value="&lt;font style=&quot;font-size: 14px;&quot;&gt;crm_sales_details&lt;/font&gt;" style="rounded=1;whiteSpace=wrap;html=1;fillColor=#f5f5f5;strokeColor=#666666;fontColor=#333333;" parent="1" vertex="1">
          <mxGeometry x="615" y="565" width="150" height="30" as="geometry" />
        </mxCell>
        <mxCell id="I61YopK0WSlyQ3vse2ND-6" value="&lt;font style=&quot;font-size: 14px;&quot;&gt;erp_cust_az12&lt;/font&gt;" style="rounded=1;whiteSpace=wrap;html=1;fillColor=#f5f5f5;strokeColor=#666666;fontColor=#333333;" parent="1" vertex="1">
          <mxGeometry x="615" y="690" width="150" height="30" as="geometry" />
        </mxCell>
        <mxCell id="I61YopK0WSlyQ3vse2ND-7" value="&lt;font style=&quot;font-size: 14px;&quot;&gt;erp_loc_a101&lt;/font&gt;" style="rounded=1;whiteSpace=wrap;html=1;fillColor=#f5f5f5;strokeColor=#666666;fontColor=#333333;" parent="1" vertex="1">
          <mxGeometry x="615" y="735" width="150" height="30" as="geometry" />
        </mxCell>
        <mxCell id="I61YopK0WSlyQ3vse2ND-8" value="&lt;span style=&quot;color: rgb(0, 0, 0); font-size: 14px;&quot;&gt;erp_px_cat_g1v2&lt;/span&gt;" style="rounded=1;whiteSpace=wrap;html=1;fillColor=#f5f5f5;strokeColor=#666666;fontColor=#333333;" parent="1" vertex="1">
          <mxGeometry x="615" y="780" width="150" height="30" as="geometry" />
        </mxCell>
        <mxCell id="I61YopK0WSlyQ3vse2ND-19" value="&lt;font style=&quot;font-size: 16px;&quot;&gt;&lt;b&gt;Silver Layer&lt;/b&gt;&lt;/font&gt;" style="rounded=1;whiteSpace=wrap;html=1;fillColor=#f5f5f5;strokeColor=#666666;fontColor=#333333;" parent="1" vertex="1">
          <mxGeometry x="600" y="370" width="180" height="40" as="geometry" />
        </mxCell>
        <mxCell id="k-Mvm8XyHYtzJQmth2Uz-1" value="" style="rounded=1;whiteSpace=wrap;html=1;fillColor=none;strokeColor=#666666;fillStyle=auto;fontColor=#333333;" vertex="1" parent="1">
          <mxGeometry x="860" y="430" width="180" height="430" as="geometry" />
        </mxCell>
        <mxCell id="k-Mvm8XyHYtzJQmth2Uz-2" value="&lt;font style=&quot;font-size: 14px;&quot;&gt;fact_sales&lt;/font&gt;" style="rounded=1;whiteSpace=wrap;html=1;fillColor=#f5f5f5;strokeColor=#666666;fontColor=#333333;" vertex="1" parent="1">
          <mxGeometry x="875" y="490" width="150" height="30" as="geometry" />
        </mxCell>
        <mxCell id="k-Mvm8XyHYtzJQmth2Uz-3" value="&lt;font style=&quot;font-size: 14px;&quot;&gt;dim_customers&lt;/font&gt;" style="rounded=1;whiteSpace=wrap;html=1;fillColor=#f5f5f5;strokeColor=#666666;fontColor=#333333;" vertex="1" parent="1">
          <mxGeometry x="875" y="625" width="150" height="30" as="geometry" />
        </mxCell>
        <mxCell id="k-Mvm8XyHYtzJQmth2Uz-4" value="&lt;font style=&quot;font-size: 14px;&quot;&gt;dim_products&lt;/font&gt;" style="rounded=1;whiteSpace=wrap;html=1;fillColor=#f5f5f5;strokeColor=#666666;fontColor=#333333;" vertex="1" parent="1">
          <mxGeometry x="875" y="735" width="150" height="30" as="geometry" />
        </mxCell>
        <mxCell id="k-Mvm8XyHYtzJQmth2Uz-8" value="&lt;font style=&quot;font-size: 16px;&quot;&gt;&lt;b&gt;Gold Layer&lt;/b&gt;&lt;/font&gt;" style="rounded=1;whiteSpace=wrap;html=1;fillColor=#f5f5f5;strokeColor=#666666;fontColor=#333333;" vertex="1" parent="1">
          <mxGeometry x="860" y="370" width="180" height="40" as="geometry" />
        </mxCell>
        <mxCell id="k-Mvm8XyHYtzJQmth2Uz-10" value="" style="endArrow=classic;html=1;rounded=0;exitX=1;exitY=0.5;exitDx=0;exitDy=0;entryX=0;entryY=0.5;entryDx=0;entryDy=0;strokeColor=default;jumpStyle=gap;" edge="1" parent="1" source="I61YopK0WSlyQ3vse2ND-5" target="k-Mvm8XyHYtzJQmth2Uz-2">
          <mxGeometry width="50" height="50" relative="1" as="geometry">
            <mxPoint x="790" y="580" as="sourcePoint" />
            <mxPoint x="840" y="530" as="targetPoint" />
          </mxGeometry>
        </mxCell>
        <mxCell id="k-Mvm8XyHYtzJQmth2Uz-11" value="" style="endArrow=classic;html=1;rounded=0;exitX=1;exitY=0.5;exitDx=0;exitDy=0;entryX=0;entryY=0.5;entryDx=0;entryDy=0;strokeColor=default;jumpStyle=gap;" edge="1" parent="1" source="I61YopK0WSlyQ3vse2ND-3" target="k-Mvm8XyHYtzJQmth2Uz-3">
          <mxGeometry width="50" height="50" relative="1" as="geometry">
            <mxPoint x="810" y="505" as="sourcePoint" />
            <mxPoint x="860" y="455" as="targetPoint" />
          </mxGeometry>
        </mxCell>
        <mxCell id="k-Mvm8XyHYtzJQmth2Uz-12" value="" style="endArrow=classic;html=1;rounded=0;exitX=1;exitY=0.5;exitDx=0;exitDy=0;entryX=0;entryY=0.5;entryDx=0;entryDy=0;jumpStyle=gap;" edge="1" parent="1" source="I61YopK0WSlyQ3vse2ND-4" target="k-Mvm8XyHYtzJQmth2Uz-4">
          <mxGeometry width="50" height="50" relative="1" as="geometry">
            <mxPoint x="800" y="705" as="sourcePoint" />
            <mxPoint x="850" y="655" as="targetPoint" />
          </mxGeometry>
        </mxCell>
        <mxCell id="k-Mvm8XyHYtzJQmth2Uz-13" value="" style="endArrow=classic;html=1;rounded=0;exitX=1;exitY=0.5;exitDx=0;exitDy=0;entryX=0;entryY=0.5;entryDx=0;entryDy=0;jumpStyle=gap;" edge="1" parent="1" source="I61YopK0WSlyQ3vse2ND-6" target="k-Mvm8XyHYtzJQmth2Uz-3">
          <mxGeometry width="50" height="50" relative="1" as="geometry">
            <mxPoint x="790" y="810" as="sourcePoint" />
            <mxPoint x="840" y="760" as="targetPoint" />
          </mxGeometry>
        </mxCell>
        <mxCell id="k-Mvm8XyHYtzJQmth2Uz-14" value="" style="endArrow=classic;html=1;rounded=0;exitX=1;exitY=0.5;exitDx=0;exitDy=0;entryX=0;entryY=0.75;entryDx=0;entryDy=0;jumpStyle=gap;" edge="1" parent="1" source="I61YopK0WSlyQ3vse2ND-7" target="k-Mvm8XyHYtzJQmth2Uz-3">
          <mxGeometry width="50" height="50" relative="1" as="geometry">
            <mxPoint x="750" y="765" as="sourcePoint" />
            <mxPoint x="860" y="700" as="targetPoint" />
          </mxGeometry>
        </mxCell>
        <mxCell id="k-Mvm8XyHYtzJQmth2Uz-15" value="" style="endArrow=classic;html=1;rounded=0;exitX=1;exitY=0.5;exitDx=0;exitDy=0;entryX=0;entryY=0.75;entryDx=0;entryDy=0;jumpStyle=gap;" edge="1" parent="1" source="I61YopK0WSlyQ3vse2ND-8" target="k-Mvm8XyHYtzJQmth2Uz-4">
          <mxGeometry width="50" height="50" relative="1" as="geometry">
            <mxPoint x="780" y="845" as="sourcePoint" />
            <mxPoint x="890" y="780" as="targetPoint" />
          </mxGeometry>
        </mxCell>
      </root>
    </mxGraphModel>
  </diagram>
</mxfile>
